<?xml version="1.0" encoding="utf-8"?>
<!-- Generator: Adobe Illustrator 23.0.4, SVG Export Plug-In . SVG Version: 6.00 Build 0)  -->
<svg version="1.1" id="Layer_1" xmlns="http://www.w3.org/2000/svg" xmlns:xlink="http://www.w3.org/1999/xlink" x="0px" y="0px"
	 viewBox="0 0 226.4 130.7" style="enable-background:new 0 0 226.4 130.7;" xml:space="preserve">
<style type="text/css">
	.st0{fill:#F1B51C;}
</style>
<path class="st0" d="M168.2,93.4c-2,0.5-4.2,0.7-6.3,0.7c-15.6,0-28.3-12.7-28.3-28.3s12.7-28.3,28.3-28.3s28.3,12.7,28.3,28.3
	c0,2.4-0.3,4.8-0.9,7l9.8,9.9c2.4-5.2,3.7-10.9,3.7-17c0-22.6-18.3-40.9-40.9-40.9C139.3,25,121,43.3,121,65.9s18.3,40.9,40.9,40.9
	c5.7,0,11.2-1.2,16.2-3.3L168.2,93.4z"/>
<g>
	<path class="st0" d="M161.9,2.5c-29,0-49.7,17.2-60.9,46.1L85,86.7L45.6,2.5h-19L77.4,110h0h15.1h0l6.8-15.8l2.9-6.7v0l16.9-40.1
		l0,0c7.2-16.4,23.5-27.9,42.6-27.9c25.7,0,46.5,20.8,46.5,46.5c0,7.6-1.9,14.8-5.1,21.2l12.3,12.4c6.1-9.7,9.7-21.3,9.7-33.6
		C225.2,30.9,196.8,2.5,161.9,2.5z"/>
	<path class="st0" d="M182.2,107.7c-6.1,3-13.1,4.7-20.4,4.7c-22.7,0-41.6-16.3-45.7-37.8l-0.7-6.3l0,0.1l0,0L104.6,93l0,0
		l-9.4,21.4H74.8L21.7,2.5H2L62,129.2h44.2l8.4-21.1c11.6,13,28.4,21.1,47.2,21.1c11.9,0,23.1-3.3,32.6-9.1L182.2,107.7z"/>
</g>
<path class="st0" d="M126.3,2.5H57.2L85,59.7c0,0,7.9-23.5,12.9-31.4C104.8,17.3,114.7,8.3,126.3,2.5z"/>
<path class="st0" d="M204.7,125.8l-44-44.8c-3.9-4.7-3.3-11.7,1.5-15.6l0,0c4.7-3.9,11.7-3.3,15.6,1.5l43.1,43.8
	c4.2,4.3,4.1,11.2-0.2,15.4l0,0C216.3,130.3,209.1,130.2,204.7,125.8z"/>
</svg>
